<?xml version="1.0" encoding="UTF-8" standalone="no"?>
<!-- Created with Inkscape (http://www.inkscape.org/) -->

<svg
   version="1.1"
   id="svg1"
   width="273.48801"
   height="319.20001"
   viewBox="0 0 273.48801 319.20001"
   sodipodi:docname="logo.svg"
   inkscape:version="1.4.2 (2aeb623e1d, 2025-05-12)"
   xmlns:inkscape="http://www.inkscape.org/namespaces/inkscape"
   xmlns:sodipodi="http://sodipodi.sourceforge.net/DTD/sodipodi-0.dtd"
   xmlns="http://www.w3.org/2000/svg"
   xmlns:svg="http://www.w3.org/2000/svg">
  <defs
     id="defs1" />
  <sodipodi:namedview
     id="namedview1"
     pagecolor="#ffffff"
     bordercolor="#000000"
     borderopacity="0.25"
     inkscape:showpageshadow="2"
     inkscape:pageopacity="0.0"
     inkscape:pagecheckerboard="0"
     inkscape:deskcolor="#d1d1d1"
     inkscape:zoom="0.43652344"
     inkscape:cx="-152.34004"
     inkscape:cy="287.49888"
     inkscape:window-width="1366"
     inkscape:window-height="697"
     inkscape:window-x="0"
     inkscape:window-y="0"
     inkscape:window-maximized="1"
     inkscape:current-layer="g1" />
  <g
     inkscape:groupmode="layer"
     inkscape:label="Image"
     id="g1">
    <path
       d="M 30.999853,-2.8791424e-5 24.027193,3.4081712 l -6.9707,3.40821 -5.32031,5.3183598 -5.3183597,5.31836 -3.20899,6.77343 -3.2089800041,6.77344 v 100.999999 101 l 3.3281200041,6.8066 c 11.0049197,22.5072 18.2655297,24.6934 81.9863297,24.6934 h 46.541017 l 15.07226,14.7559 c 8.29,8.1156 20.96095,20.4906 28.15817,27.5 13.3862,13.0366 14.3609,13.7209 16.2754,11.414 l 1.1055,-1.332 0.2676,-25.918 0.2656,-25.9199 23.5,-0.543 23.5,-0.5449 5.3652,-2.2363 c 14.8645,-6.1957 24.6339,-18.3688 27.17,-33.8535 0.5544,-3.3858 0.9531,-43.68185 0.9531,-96.3223 V 40.999971 l -0.9805,-6 c -0.5397,-3.3 -2.3304,-8.73869 -3.9785,-12.08789 l -2.9961,-6.08984 -5.5078,-5.20899 c -3.0293,-2.8649998 -8.5484,-6.6493498 -12.2656,-8.4101498 l -6.7598,-3.203129991424 h -105 z M 106.30454,35.255831 l 7.34765,1.64063 c 19.77712,4.41128 33.01597,15.73906 38.95899,33.33789 l 2.28515,6.76562 0.18946,10.73047 0.1914,10.72852 2.14453,4.117179 c 1.18027,2.2644 4.61007,7.20475 7.6211,10.97852 3.01103,3.77377 6.41841,8.46037 7.57223,10.41601 l 2.0977,3.55664 -1.5273,2.33399 c -0.841,1.28346 -3.02737,2.88856 -4.85748,3.56836 -1.8301,0.67979 -4.00312,1.59542 -4.82812,2.03515 l -1.5,0.80079 0.31836,6.03515 0.31836,6.03516 -1.57227,3.04297 -1.57422,3.04297 -4.99414,1.77539 c -5.74074,2.03893 -6.1958,2.88085 -2.04297,3.79297 1.62419,0.35672 4.05729,1.51702 5.40625,2.57812 l 2.45313,1.92969 -0.54102,10.25195 c -0.64388,12.21617 -1.93307,15.23927 -7.58789,17.80664 l -4.18359,1.90039 -6.93359,0.0215 c -3.81391,0.0121 -9.61386,-0.72957 -12.88868,-1.64844 l -5.95507,-1.66992 -1.36133,1.86133 -1.36133,1.86132 v 9.22657 c 0,5.0749 -0.27162,9.94056 -0.60547,10.81054 -0.71819,1.87159 -1.11189,1.85724 -13.39453,-0.47461 -11.301337,-2.14554 -36.664407,-4.94531 -44.808587,-4.94531 -3.18498,0 -6.26374,-0.47272 -6.8418,-1.05078 l -1.05078,-1.05078 0.46484,-16.69922 c 0.26843,-9.63433 0.0209,-19.06467 -0.58594,-22.29297 l -1.05273,-5.5957 -6.41602,-9.46485 c -6.38401,-9.41595 -10.89936,-19.44972 -14.33203,-31.8457 l -1.79883,-6.5 -0.0391,-13.5 -0.0391,-13.499999 2.41602,-7.375 c 8.62552,-26.33443 32.91167,-43.42445 63.73632,-44.85156 z m 118.10551,53.24414 h 2.9609 2.959 l 3.9922,4.53516 c 5.3337,6.05944 11.4578,18.058879 14.8086,29.015619 l 2.7363,8.94922 0.066,15.5 0.066,15.5 -2.293,8 c -3.3282,11.60808 -9.606,23.6842 -15.6191,30.04297 -5.3283,5.63463 -6.6803,6.20425 -10.0879,4.25 -5.6217,-3.22405 -5.7328,-6.78006 -0.4375,-13.86133 7.4428,-9.95307 12.1215,-21.66376 13.9277,-34.85547 l 1.1328,-8.27734 -1.0586,-8.7207 c -1.7532,-14.4194 -6.3625,-25.92206 -14.457,-36.07813 -4.2214,-5.296589 -4.5106,-8.186629 -1.1523,-11.544919 z m -18.5821,17.999999 h 2.418 l 4.2129,4.57227 c 5.5768,6.05016 9.8527,15.44933 11.6601,25.63281 l 1.4727,8.29492 -0.6113,6 c -1.3111,12.85278 -7.6076,27.77193 -14.1426,33.50977 -1.8732,1.64473 -3.9527,2.97317 -4.6211,2.95117 -2.6653,-0.0878 -6.7268,-3.15091 -7.3223,-5.52344 l -0.6289,-2.51367 4.0235,-5.73633 c 2.2133,-3.15526 4.853,-8.19977 5.8672,-11.21094 l 1.8437,-5.47656 v -10.5 -10.5 l -1.9453,-5.24219 c -1.0698,-2.88371 -3.6573,-7.50457 -5.75,-10.26953 -5.3444,-7.0611 -3.5991,-13.98828 3.5234,-13.98828 z m -20.5351,16.84766 2.8144,0.32617 2.8145,0.32617 2.7695,4 c 1.5236,2.2 3.5047,6.90982 4.4023,10.46484 l 1.6329,6.4629 -0.625,5.30468 c -0.7862,6.68922 -3.8501,14.84012 -6.7325,17.90821 l -2.2168,2.35937 h -2.8261 c -6.5553,0 -8.3303,-5.51408 -4.3203,-13.41797 l 2.4941,-4.91992 -0.012,-5.58008 -0.012,-5.58203 -2.4883,-4.35156 c -3.1172,-5.45282 -3.1397,-8.18547 -0.092,-11.04883 z"
       style="fill:#d21d3d"
       id="path54" />
  </g>
</svg>
